<svg xmlns="http://www.w3.org/2000/svg" viewBox="0 0 512 512">
  <defs>
    <linearGradient id="bg" x1="0%" y1="0%" x2="100%" y2="100%">
      <stop offset="0%" stop-color="#022c22"/>
      <stop offset="100%" stop-color="#065f46"/>
    </linearGradient>
    <linearGradient id="leaf" x1="0%" y1="100%" x2="100%" y2="0%">
      <stop offset="0%" stop-color="#10b981"/>
      <stop offset="100%" stop-color="#34d399"/>
    </linearGradient>
  </defs>
  <rect width="512" height="512" rx="110" fill="url(#bg)"/>
  <!-- Stem -->
  <path d="M256 400 Q240 300 300 200" fill="none" stroke="url(#leaf)" stroke-width="24" stroke-linecap="round"/>
  <!-- Left Leaf -->
  <path d="M256 340 Q150 340 130 220 Q200 180 256 340" fill="url(#leaf)"/>
  <!-- Right Leaf -->
  <path d="M280 260 Q380 260 400 120 Q320 100 280 260" fill="url(#leaf)"/>
  <!-- Magic Sparkles -->
  <path d="M380 80 L390 100 L410 110 L390 120 L380 140 L370 120 L350 110 L370 100 Z" fill="#fbbf24"/>
  <path d="M120 160 L130 175 L145 185 L130 195 L120 210 L110 195 L95 185 L110 175 Z" fill="#fbbf24"/>
</svg>
